<?xml version="1.0" encoding="UTF-8" standalone="no"?>
<!DOCTYPE svg PUBLIC "-//W3C//DTD SVG 1.1//EN"
 "http://www.w3.org/Graphics/SVG/1.1/DTD/svg11.dtd">
<!-- Generated by graphviz version 2.24.0 (20090616.2323)
 -->
<!-- Title: XX Pages: 1 -->
<svg width="962pt" height="178pt"
 viewBox="0.00 0.00 962.00 178.00" xmlns="http://www.w3.org/2000/svg" xmlns:xlink="http://www.w3.org/1999/xlink">
<g id="graph1" class="graph" transform="scale(1 1) rotate(0) translate(4 174)">
<title>XX</title>
<polygon fill="white" stroke="white" points="-4,5 -4,-174 959,-174 959,5 -4,5"/>
<text text-anchor="middle" x="477" y="-7.4" font-family="Times New Roman,serif" font-size="14.00">Common</text>
<g id="graph2" class="cluster"><title>clusterBefore</title>
<polygon fill="none" stroke="black" points="8,-32 8,-162 296,-162 296,-32 8,-32"/>
<text text-anchor="middle" x="152" y="-145.4" font-family="Times New Roman,serif" font-size="14.00">Before</text>
</g>
<g id="graph3" class="cluster"><title>clusterAfter</title>
<polygon fill="none" stroke="black" points="658,-32 658,-162 946,-162 946,-32 658,-32"/>
<text text-anchor="middle" x="802" y="-145.4" font-family="Times New Roman,serif" font-size="14.00">After</text>
</g>
<!-- getCommon_before -->
<g id="node2" class="node"><title>getCommon_before</title>
<polygon fill="none" stroke="black" stroke-width="2" points="287,-130 17,-130 17,-94 287,-94 287,-130"/>
<text text-anchor="middle" x="152" y="-107.4" font-family="Times New Roman,serif" font-size="14.00">getCommon( time = 149.963| count =200000)</text>
</g>
<!-- getCommon_after -->
<g id="node5" class="node"><title>getCommon_after</title>
<polygon fill="none" stroke="black" stroke-width="2" points="937,-130 667,-130 667,-94 937,-94 937,-130"/>
<text text-anchor="middle" x="802" y="-107.4" font-family="Times New Roman,serif" font-size="14.00">getCommon( time = 149.963| count =200000)</text>
</g>
<!-- getCommon_before&#45;&gt;getCommon_after -->
<g id="edge4" class="edge"><title>getCommon_before&#45;&gt;getCommon_after</title>
<path fill="none" stroke="black" d="M287.866,-112C395.594,-112 545.845,-112 656.104,-112"/>
<polygon fill="black" stroke="black" points="656.311,-115.5 666.311,-112 656.311,-108.5 656.311,-115.5"/>
<text text-anchor="middle" x="477" y="-115.4" font-family="Times New Roman,serif" font-size="14.00">0.0</text>
</g>
<!-- setCommon_before -->
<g id="node3" class="node"><title>setCommon_before</title>
<polygon fill="none" stroke="black" stroke-width="2" points="287,-76 17,-76 17,-40 287,-40 287,-76"/>
<text text-anchor="middle" x="152" y="-53.4" font-family="Times New Roman,serif" font-size="14.00">setCommon( time = 61.3485| count =100000)</text>
</g>
<!-- setCommon_after -->
<g id="node6" class="node"><title>setCommon_after</title>
<polygon fill="none" stroke="black" stroke-width="2" points="937,-76 667,-76 667,-40 937,-40 937,-76"/>
<text text-anchor="middle" x="802" y="-53.4" font-family="Times New Roman,serif" font-size="14.00">setCommon( time = 61.3485| count =100000)</text>
</g>
<!-- setCommon_before&#45;&gt;setCommon_after -->
<g id="edge6" class="edge"><title>setCommon_before&#45;&gt;setCommon_after</title>
<path fill="none" stroke="black" d="M287.075,-58C395.014,-58 546.012,-58 656.584,-58"/>
<polygon fill="black" stroke="black" points="656.819,-61.5001 666.819,-58 656.819,-54.5001 656.819,-61.5001"/>
<text text-anchor="middle" x="477" y="-61.4" font-family="Times New Roman,serif" font-size="14.00">0.0</text>
</g>
</g>
</svg>
