<?xml version="1.0" encoding="UTF-8" standalone="no"?>
<!DOCTYPE svg PUBLIC "-//W3C//DTD SVG 1.1//EN"
 "http://www.w3.org/Graphics/SVG/1.1/DTD/svg11.dtd">
<!-- Generated by graphviz version 2.24.0 (20090616.2323)
 -->
<!-- Title: XX Pages: 1 -->
<svg width="1006pt" height="178pt"
 viewBox="0.00 0.00 1006.00 178.00" xmlns="http://www.w3.org/2000/svg" xmlns:xlink="http://www.w3.org/1999/xlink">
<g id="graph1" class="graph" transform="scale(1 1) rotate(0) translate(4 174)">
<title>XX</title>
<polygon fill="white" stroke="white" points="-4,5 -4,-174 1003,-174 1003,5 -4,5"/>
<text text-anchor="middle" x="499" y="-7.4" font-family="Times New Roman,serif" font-size="14.00">Common2</text>
<g id="graph2" class="cluster"><title>clusterBefore</title>
<polygon fill="none" stroke="black" points="8,-32 8,-162 318,-162 318,-32 8,-32"/>
<text text-anchor="middle" x="163" y="-145.4" font-family="Times New Roman,serif" font-size="14.00">Before</text>
</g>
<g id="graph3" class="cluster"><title>clusterAfter</title>
<polygon fill="none" stroke="black" points="680,-32 680,-162 990,-162 990,-32 680,-32"/>
<text text-anchor="middle" x="835" y="-145.4" font-family="Times New Roman,serif" font-size="14.00">After</text>
</g>
<!-- CommonTest2_before -->
<g id="node2" class="node"><title>CommonTest2_before</title>
<polygon fill="none" stroke="black" stroke-width="2" points="309,-130 17,-130 17,-94 309,-94 309,-130"/>
<text text-anchor="middle" x="163" y="-107.4" font-family="Times New Roman,serif" font-size="14.00">CommonTest2( time = 334.0085| count =100000)</text>
</g>
<!-- CommonTest2_after -->
<g id="node5" class="node"><title>CommonTest2_after</title>
<polygon fill="none" stroke="black" stroke-width="2" points="981,-130 689,-130 689,-94 981,-94 981,-130"/>
<text text-anchor="middle" x="835" y="-107.4" font-family="Times New Roman,serif" font-size="14.00">CommonTest2( time = 334.0085| count =100000)</text>
</g>
<!-- CommonTest2_before&#45;&gt;CommonTest2_after -->
<g id="edge6" class="edge"><title>CommonTest2_before&#45;&gt;CommonTest2_after</title>
<path fill="none" stroke="black" d="M309.643,-112C418.528,-112 566.805,-112 678.07,-112"/>
<polygon fill="black" stroke="black" points="678.38,-115.5 688.38,-112 678.38,-108.5 678.38,-115.5"/>
<text text-anchor="middle" x="499" y="-115.4" font-family="Times New Roman,serif" font-size="14.00">0.0</text>
</g>
<!-- CommonTest_before -->
<g id="node3" class="node"><title>CommonTest_before</title>
<polygon fill="none" stroke="black" stroke-width="2" points="302,-76 24,-76 24,-40 302,-40 302,-76"/>
<text text-anchor="middle" x="163" y="-53.4" font-family="Times New Roman,serif" font-size="14.00">CommonTest( time = 61.3485| count =100000)</text>
</g>
<!-- CommonTest_after -->
<g id="node6" class="node"><title>CommonTest_after</title>
<polygon fill="none" stroke="black" stroke-width="2" points="974,-76 696,-76 696,-40 974,-40 974,-76"/>
<text text-anchor="middle" x="835" y="-53.4" font-family="Times New Roman,serif" font-size="14.00">CommonTest( time = 61.3485| count =100000)</text>
</g>
<!-- CommonTest_before&#45;&gt;CommonTest_after -->
<g id="edge4" class="edge"><title>CommonTest_before&#45;&gt;CommonTest_after</title>
<path fill="none" stroke="black" d="M302.647,-58C414.352,-58 570.662,-58 685.008,-58"/>
<polygon fill="black" stroke="black" points="685.244,-61.5001 695.244,-58 685.244,-54.5001 685.244,-61.5001"/>
<text text-anchor="middle" x="499" y="-61.4" font-family="Times New Roman,serif" font-size="14.00">0.0</text>
</g>
</g>
</svg>
