<?xml version="1.0" encoding="UTF-8" standalone="no"?>
<!DOCTYPE svg PUBLIC "-//W3C//DTD SVG 1.1//EN"
 "http://www.w3.org/Graphics/SVG/1.1/DTD/svg11.dtd">
<!-- Generated by graphviz version 2.24.0 (20090616.2323)
 -->
<!-- Title: XX Pages: 1 -->
<svg width="966pt" height="124pt"
 viewBox="0.00 0.00 966.00 124.00" xmlns="http://www.w3.org/2000/svg" xmlns:xlink="http://www.w3.org/1999/xlink">
<g id="graph1" class="graph" transform="scale(1 1) rotate(0) translate(4 120)">
<title>XX</title>
<polygon fill="white" stroke="white" points="-4,5 -4,-120 963,-120 963,5 -4,5"/>
<text text-anchor="middle" x="479" y="-7.4" font-family="Times New Roman,serif" font-size="14.00">Common1</text>
<g id="graph2" class="cluster"><title>clusterBefore</title>
<polygon fill="none" stroke="black" points="8,-32 8,-108 298,-108 298,-32 8,-32"/>
<text text-anchor="middle" x="153" y="-91.4" font-family="Times New Roman,serif" font-size="14.00">Before</text>
</g>
<g id="graph3" class="cluster"><title>clusterAfter</title>
<polygon fill="none" stroke="black" points="660,-32 660,-108 950,-108 950,-32 660,-32"/>
<text text-anchor="middle" x="805" y="-91.4" font-family="Times New Roman,serif" font-size="14.00">After</text>
</g>
<!-- Commontest_before -->
<g id="node2" class="node"><title>Commontest_before</title>
<polygon fill="none" stroke="black" stroke-width="2" points="290,-76 16,-76 16,-40 290,-40 290,-76"/>
<text text-anchor="middle" x="153" y="-53.4" font-family="Times New Roman,serif" font-size="14.00">Commontest( time = 531.687| count =200000)</text>
</g>
<!-- Commontest_after -->
<g id="node4" class="node"><title>Commontest_after</title>
<polygon fill="none" stroke="black" stroke-width="2" points="942,-76 668,-76 668,-40 942,-40 942,-76"/>
<text text-anchor="middle" x="805" y="-53.4" font-family="Times New Roman,serif" font-size="14.00">Commontest( time = 531.687| count =200000)</text>
</g>
<!-- Commontest_before&#45;&gt;Commontest_after -->
<g id="edge4" class="edge"><title>Commontest_before&#45;&gt;Commontest_after</title>
<path fill="none" stroke="black" d="M290.078,-58C397.744,-58 547.389,-58 657.62,-58"/>
<polygon fill="black" stroke="black" points="657.826,-61.5001 667.826,-58 657.826,-54.5001 657.826,-61.5001"/>
<text text-anchor="middle" x="479" y="-61.4" font-family="Times New Roman,serif" font-size="14.00">0.0</text>
</g>
</g>
</svg>
