<?xml version="1.0" encoding="UTF-8" standalone="no"?>
<!DOCTYPE svg PUBLIC "-//W3C//DTD SVG 1.1//EN"
 "http://www.w3.org/Graphics/SVG/1.1/DTD/svg11.dtd">
<!-- Generated by graphviz version 2.24.0 (20090616.2323)
 -->
<!-- Title: XX Pages: 1 -->
<svg width="970pt" height="286pt"
 viewBox="0.00 0.00 970.00 286.00" xmlns="http://www.w3.org/2000/svg" xmlns:xlink="http://www.w3.org/1999/xlink">
<g id="graph1" class="graph" transform="scale(1 1) rotate(0) translate(4 282)">
<title>XX</title>
<polygon fill="white" stroke="white" points="-4,5 -4,-282 967,-282 967,5 -4,5"/>
<text text-anchor="middle" x="481" y="-7.4" font-family="Times New Roman,serif" font-size="14.00">Contents</text>
<g id="graph2" class="cluster"><title>clusterBefore</title>
<polygon fill="none" stroke="black" points="8,-32 8,-270 300,-270 300,-32 8,-32"/>
<text text-anchor="middle" x="154" y="-253.4" font-family="Times New Roman,serif" font-size="14.00">Before</text>
</g>
<g id="graph3" class="cluster"><title>clusterAfter</title>
<polygon fill="none" stroke="black" points="662,-32 662,-270 954,-270 954,-32 662,-32"/>
<text text-anchor="middle" x="808" y="-253.4" font-family="Times New Roman,serif" font-size="14.00">After</text>
</g>
<!-- getContents2_before -->
<g id="node2" class="node"><title>getContents2_before</title>
<polygon fill="none" stroke="black" stroke-width="2" points="288,-238 20,-238 20,-202 288,-202 288,-238"/>
<text text-anchor="middle" x="154" y="-215.4" font-family="Times New Roman,serif" font-size="14.00">getContents2( time = 81.798| count =100000)</text>
</g>
<!-- getContents2_after -->
<g id="node7" class="node"><title>getContents2_after</title>
<polygon fill="none" stroke="black" stroke-width="2" points="942,-238 674,-238 674,-202 942,-202 942,-238"/>
<text text-anchor="middle" x="808" y="-215.4" font-family="Times New Roman,serif" font-size="14.00">getContents2( time = 81.798| count =100000)</text>
</g>
<!-- getContents2_before&#45;&gt;getContents2_after -->
<g id="edge6" class="edge"><title>getContents2_before&#45;&gt;getContents2_after</title>
<path fill="none" stroke="black" d="M288.716,-220C397.97,-220 551.64,-220 663.452,-220"/>
<polygon fill="black" stroke="black" points="663.459,-223.5 673.459,-220 663.459,-216.5 663.459,-223.5"/>
<text text-anchor="middle" x="481" y="-223.4" font-family="Times New Roman,serif" font-size="14.00">0.0</text>
</g>
<!-- getContents1_before -->
<g id="node3" class="node"><title>getContents1_before</title>
<polygon fill="none" stroke="black" stroke-width="2" points="292,-184 16,-184 16,-148 292,-148 292,-184"/>
<text text-anchor="middle" x="154" y="-161.4" font-family="Times New Roman,serif" font-size="14.00">getContents1( time = 74.9815| count =100000)</text>
</g>
<!-- getContents1_after -->
<g id="node8" class="node"><title>getContents1_after</title>
<polygon fill="none" stroke="black" stroke-width="2" points="946,-184 670,-184 670,-148 946,-148 946,-184"/>
<text text-anchor="middle" x="808" y="-161.4" font-family="Times New Roman,serif" font-size="14.00">getContents1( time = 74.9815| count =100000)</text>
</g>
<!-- getContents1_before&#45;&gt;getContents1_after -->
<g id="edge4" class="edge"><title>getContents1_before&#45;&gt;getContents1_after</title>
<path fill="none" stroke="black" d="M292.297,-166C400.077,-166 549.438,-166 659.688,-166"/>
<polygon fill="black" stroke="black" points="659.897,-169.5 669.897,-166 659.897,-162.5 659.897,-169.5"/>
<text text-anchor="middle" x="481" y="-169.4" font-family="Times New Roman,serif" font-size="14.00">0.0</text>
</g>
<!-- getContents4_before -->
<g id="node4" class="node"><title>getContents4_before</title>
<polygon fill="none" stroke="black" stroke-width="2" points="288,-130 20,-130 20,-94 288,-94 288,-130"/>
<text text-anchor="middle" x="154" y="-107.4" font-family="Times New Roman,serif" font-size="14.00">getContents4( time = 68.165| count =100000)</text>
</g>
<!-- getContents4_after -->
<g id="node9" class="node"><title>getContents4_after</title>
<polygon fill="none" stroke="black" stroke-width="2" points="942,-130 674,-130 674,-94 942,-94 942,-130"/>
<text text-anchor="middle" x="808" y="-107.4" font-family="Times New Roman,serif" font-size="14.00">getContents4( time = 68.165| count =100000)</text>
</g>
<!-- getContents4_before&#45;&gt;getContents4_after -->
<g id="edge10" class="edge"><title>getContents4_before&#45;&gt;getContents4_after</title>
<path fill="none" stroke="black" d="M288.716,-112C397.97,-112 551.64,-112 663.452,-112"/>
<polygon fill="black" stroke="black" points="663.459,-115.5 673.459,-112 663.459,-108.5 663.459,-115.5"/>
<text text-anchor="middle" x="481" y="-115.4" font-family="Times New Roman,serif" font-size="14.00">0.0</text>
</g>
<!-- getContents3_before -->
<g id="node5" class="node"><title>getContents3_before</title>
<polygon fill="none" stroke="black" stroke-width="2" points="292,-76 16,-76 16,-40 292,-40 292,-76"/>
<text text-anchor="middle" x="154" y="-53.4" font-family="Times New Roman,serif" font-size="14.00">getContents3( time = 61.3485| count =100000)</text>
</g>
<!-- getContents3_after -->
<g id="node10" class="node"><title>getContents3_after</title>
<polygon fill="none" stroke="black" stroke-width="2" points="946,-76 670,-76 670,-40 946,-40 946,-76"/>
<text text-anchor="middle" x="808" y="-53.4" font-family="Times New Roman,serif" font-size="14.00">getContents3( time = 61.3485| count =100000)</text>
</g>
<!-- getContents3_before&#45;&gt;getContents3_after -->
<g id="edge8" class="edge"><title>getContents3_before&#45;&gt;getContents3_after</title>
<path fill="none" stroke="black" d="M292.297,-58C400.077,-58 549.438,-58 659.688,-58"/>
<polygon fill="black" stroke="black" points="659.897,-61.5001 669.897,-58 659.897,-54.5001 659.897,-61.5001"/>
<text text-anchor="middle" x="481" y="-61.4" font-family="Times New Roman,serif" font-size="14.00">0.0</text>
</g>
</g>
</svg>
