<?xml version="1.0" encoding="UTF-8" standalone="no"?>
<!DOCTYPE svg PUBLIC "-//W3C//DTD SVG 1.1//EN"
 "http://www.w3.org/Graphics/SVG/1.1/DTD/svg11.dtd">
<!-- Generated by graphviz version 2.24.0 (20090616.2323)
 -->
<!-- Title: XX Pages: 1 -->
<svg width="834pt" height="124pt"
 viewBox="0.00 0.00 834.00 124.00" xmlns="http://www.w3.org/2000/svg" xmlns:xlink="http://www.w3.org/1999/xlink">
<g id="graph1" class="graph" transform="scale(1 1) rotate(0) translate(4 120)">
<title>XX</title>
<polygon fill="white" stroke="white" points="-4,5 -4,-120 831,-120 831,5 -4,5"/>
<text text-anchor="middle" x="413" y="-7.4" font-family="Times New Roman,serif" font-size="14.00">SampleMain</text>
<g id="graph2" class="cluster"><title>clusterBefore</title>
<polygon fill="none" stroke="black" points="8,-32 8,-108 232,-108 232,-32 8,-32"/>
<text text-anchor="middle" x="120" y="-91.4" font-family="Times New Roman,serif" font-size="14.00">Before</text>
</g>
<g id="graph3" class="cluster"><title>clusterAfter</title>
<polygon fill="none" stroke="black" points="594,-32 594,-108 818,-108 818,-32 594,-32"/>
<text text-anchor="middle" x="706" y="-91.4" font-family="Times New Roman,serif" font-size="14.00">After</text>
</g>
<!-- main_before -->
<g id="node2" class="node"><title>main_before</title>
<polygon fill="none" stroke="black" stroke-width="2" points="224,-76 16,-76 16,-40 224,-40 224,-76"/>
<text text-anchor="middle" x="120" y="-53.4" font-family="Times New Roman,serif" font-size="14.00">main( time = 742.99854| count =1)</text>
</g>
<!-- main_after -->
<g id="node4" class="node"><title>main_after</title>
<polygon fill="none" stroke="black" stroke-width="2" points="810,-76 602,-76 602,-40 810,-40 810,-76"/>
<text text-anchor="middle" x="706" y="-53.4" font-family="Times New Roman,serif" font-size="14.00">main( time = 742.99854| count =1)</text>
</g>
<!-- main_before&#45;&gt;main_after -->
<g id="edge4" class="edge"><title>main_before&#45;&gt;main_after</title>
<path fill="none" stroke="black" d="M224.09,-58C327.321,-58 485.092,-58 591.737,-58"/>
<polygon fill="black" stroke="black" points="591.894,-61.5001 601.894,-58 591.894,-54.5001 591.894,-61.5001"/>
<text text-anchor="middle" x="413" y="-61.4" font-family="Times New Roman,serif" font-size="14.00">0.0</text>
</g>
</g>
</svg>
