<?xml version="1.0" encoding="UTF-8" standalone="no"?>
<!DOCTYPE svg PUBLIC "-//W3C//DTD SVG 1.1//EN"
 "http://www.w3.org/Graphics/SVG/1.1/DTD/svg11.dtd">
<!-- Generated by graphviz version 2.24.0 (20090616.2323)
 -->
<!-- Title: XX Pages: 1 -->
<svg width="930pt" height="286pt"
 viewBox="0.00 0.00 930.00 286.00" xmlns="http://www.w3.org/2000/svg" xmlns:xlink="http://www.w3.org/1999/xlink">
<g id="graph1" class="graph" transform="scale(1 1) rotate(0) translate(4 282)">
<title>XX</title>
<polygon fill="white" stroke="white" points="-4,5 -4,-282 927,-282 927,5 -4,5"/>
<text text-anchor="middle" x="461" y="-7.4" font-family="Times New Roman,serif" font-size="14.00">SampleDataClass</text>
<g id="graph2" class="cluster"><title>clusterBefore</title>
<polygon fill="none" stroke="black" points="8,-32 8,-270 280,-270 280,-32 8,-32"/>
<text text-anchor="middle" x="144" y="-253.4" font-family="Times New Roman,serif" font-size="14.00">Before</text>
</g>
<g id="graph3" class="cluster"><title>clusterAfter</title>
<polygon fill="none" stroke="black" points="642,-32 642,-270 914,-270 914,-32 642,-32"/>
<text text-anchor="middle" x="778" y="-253.4" font-family="Times New Roman,serif" font-size="14.00">After</text>
</g>
<!-- getA_before -->
<g id="node2" class="node"><title>getA_before</title>
<polygon fill="none" stroke="black" stroke-width="2" points="265,-238 23,-238 23,-202 265,-202 265,-238"/>
<text text-anchor="middle" x="144" y="-215.4" font-family="Times New Roman,serif" font-size="14.00">getA( time = 7089.16| count =10000000)</text>
</g>
<!-- getA_after -->
<g id="node7" class="node"><title>getA_after</title>
<polygon fill="none" stroke="black" stroke-width="2" points="899,-238 657,-238 657,-202 899,-202 899,-238"/>
<text text-anchor="middle" x="778" y="-215.4" font-family="Times New Roman,serif" font-size="14.00">getA( time = 7089.16| count =10000000)</text>
</g>
<!-- getA_before&#45;&gt;getA_after -->
<g id="edge4" class="edge"><title>getA_before&#45;&gt;getA_after</title>
<path fill="none" stroke="black" d="M265.117,-220C374.319,-220 534.525,-220 646.747,-220"/>
<polygon fill="black" stroke="black" points="646.774,-223.5 656.774,-220 646.774,-216.5 646.774,-223.5"/>
<text text-anchor="middle" x="461" y="-223.4" font-family="Times New Roman,serif" font-size="14.00">0.0</text>
</g>
<!-- getC_before -->
<g id="node3" class="node"><title>getC_before</title>
<polygon fill="none" stroke="black" stroke-width="2" points="268,-184 20,-184 20,-148 268,-148 268,-184"/>
<text text-anchor="middle" x="144" y="-161.4" font-family="Times New Roman,serif" font-size="14.00">getC( time = 6966.463| count =10000000)</text>
</g>
<!-- getC_after -->
<g id="node8" class="node"><title>getC_after</title>
<polygon fill="none" stroke="black" stroke-width="2" points="902,-184 654,-184 654,-148 902,-148 902,-184"/>
<text text-anchor="middle" x="778" y="-161.4" font-family="Times New Roman,serif" font-size="14.00">getC( time = 6966.463| count =10000000)</text>
</g>
<!-- getC_before&#45;&gt;getC_after -->
<g id="edge8" class="edge"><title>getC_before&#45;&gt;getC_after</title>
<path fill="none" stroke="black" d="M268.502,-166C376.385,-166 532.141,-166 642.994,-166"/>
<polygon fill="black" stroke="black" points="643.242,-169.5 653.242,-166 643.242,-162.5 643.242,-169.5"/>
<text text-anchor="middle" x="461" y="-169.4" font-family="Times New Roman,serif" font-size="14.00">0.0</text>
</g>
<!-- getB_before -->
<g id="node4" class="node"><title>getB_before</title>
<polygon fill="none" stroke="black" stroke-width="2" points="271,-130 17,-130 17,-94 271,-94 271,-130"/>
<text text-anchor="middle" x="144" y="-107.4" font-family="Times New Roman,serif" font-size="14.00">getB( time = 6959.6465| count =10000000)</text>
</g>
<!-- getB_after -->
<g id="node9" class="node"><title>getB_after</title>
<polygon fill="none" stroke="black" stroke-width="2" points="905,-130 651,-130 651,-94 905,-94 905,-130"/>
<text text-anchor="middle" x="778" y="-107.4" font-family="Times New Roman,serif" font-size="14.00">getB( time = 6959.6465| count =10000000)</text>
</g>
<!-- getB_before&#45;&gt;getB_after -->
<g id="edge6" class="edge"><title>getB_before&#45;&gt;getB_after</title>
<path fill="none" stroke="black" d="M271.537,-112C378.398,-112 530.63,-112 640.256,-112"/>
<polygon fill="black" stroke="black" points="640.396,-115.5 650.396,-112 640.396,-108.5 640.396,-115.5"/>
<text text-anchor="middle" x="461" y="-115.4" font-family="Times New Roman,serif" font-size="14.00">0.0</text>
</g>
<!-- getD_before -->
<g id="node5" class="node"><title>getD_before</title>
<polygon fill="none" stroke="black" stroke-width="2" points="271,-76 17,-76 17,-40 271,-40 271,-76"/>
<text text-anchor="middle" x="144" y="-53.4" font-family="Times New Roman,serif" font-size="14.00">getD( time = 6877.8486| count =10000000)</text>
</g>
<!-- getD_after -->
<g id="node10" class="node"><title>getD_after</title>
<polygon fill="none" stroke="black" stroke-width="2" points="905,-76 651,-76 651,-40 905,-40 905,-76"/>
<text text-anchor="middle" x="778" y="-53.4" font-family="Times New Roman,serif" font-size="14.00">getD( time = 6877.8486| count =10000000)</text>
</g>
<!-- getD_before&#45;&gt;getD_after -->
<g id="edge10" class="edge"><title>getD_before&#45;&gt;getD_after</title>
<path fill="none" stroke="black" d="M271.537,-58C378.398,-58 530.63,-58 640.256,-58"/>
<polygon fill="black" stroke="black" points="640.396,-61.5001 650.396,-58 640.396,-54.5001 640.396,-61.5001"/>
<text text-anchor="middle" x="461" y="-61.4" font-family="Times New Roman,serif" font-size="14.00">0.0</text>
</g>
</g>
</svg>
