<?xml version="1.0" encoding="UTF-8" standalone="no"?>
<!DOCTYPE svg PUBLIC "-//W3C//DTD SVG 1.1//EN"
 "http://www.w3.org/Graphics/SVG/1.1/DTD/svg11.dtd">
<!-- Generated by graphviz version 2.24.0 (20090616.2323)
 -->
<!-- Title: XX Pages: 1 -->
<svg width="898pt" height="124pt"
 viewBox="0.00 0.00 898.00 124.00" xmlns="http://www.w3.org/2000/svg" xmlns:xlink="http://www.w3.org/1999/xlink">
<g id="graph1" class="graph" transform="scale(1 1) rotate(0) translate(4 120)">
<title>XX</title>
<polygon fill="white" stroke="white" points="-4,5 -4,-120 895,-120 895,5 -4,5"/>
<text text-anchor="middle" x="445" y="-7.4" font-family="Times New Roman,serif" font-size="14.00">Stamp</text>
<g id="graph2" class="cluster"><title>clusterBefore</title>
<polygon fill="none" stroke="black" points="8,-32 8,-108 264,-108 264,-32 8,-32"/>
<text text-anchor="middle" x="136" y="-91.4" font-family="Times New Roman,serif" font-size="14.00">Before</text>
</g>
<g id="graph3" class="cluster"><title>clusterAfter</title>
<polygon fill="none" stroke="black" points="626,-32 626,-108 882,-108 882,-32 626,-32"/>
<text text-anchor="middle" x="754" y="-91.4" font-family="Times New Roman,serif" font-size="14.00">After</text>
</g>
<!-- stampTest_before -->
<g id="node2" class="node"><title>stampTest_before</title>
<polygon fill="none" stroke="black" stroke-width="2" points="256,-76 16,-76 16,-40 256,-40 256,-76"/>
<text text-anchor="middle" x="136" y="-53.4" font-family="Times New Roman,serif" font-size="14.00">stampTest( time = 37708.88| count =10)</text>
</g>
<!-- stampTest_after -->
<g id="node4" class="node"><title>stampTest_after</title>
<polygon fill="none" stroke="black" stroke-width="2" points="874,-76 634,-76 634,-40 874,-40 874,-76"/>
<text text-anchor="middle" x="754" y="-53.4" font-family="Times New Roman,serif" font-size="14.00">stampTest( time = 37708.88| count =10)</text>
</g>
<!-- stampTest_before&#45;&gt;stampTest_after -->
<g id="edge4" class="edge"><title>stampTest_before&#45;&gt;stampTest_after</title>
<path fill="none" stroke="black" d="M256.256,-58C361.9,-58 515.253,-58 623.77,-58"/>
<polygon fill="black" stroke="black" points="623.799,-61.5001 633.799,-58 623.799,-54.5001 623.799,-61.5001"/>
<text text-anchor="middle" x="445" y="-61.4" font-family="Times New Roman,serif" font-size="14.00">0.0</text>
</g>
</g>
</svg>
