<?xml version="1.0" encoding="UTF-8" standalone="no"?>
<!DOCTYPE svg PUBLIC "-//W3C//DTD SVG 1.1//EN"
 "http://www.w3.org/Graphics/SVG/1.1/DTD/svg11.dtd">
<!-- Generated by graphviz version 2.24.0 (20090616.2323)
 -->
<!-- Title: xx Pages: 1 -->
<svg width="690pt" height="962pt"
 viewBox="0.00 0.00 690.00 962.00" xmlns="http://www.w3.org/2000/svg" xmlns:xlink="http://www.w3.org/1999/xlink">
<g id="graph1" class="graph" transform="scale(1 1) rotate(0) translate(4 958)">
<title>xx</title>
<polygon fill="white" stroke="white" points="-4,5 -4,-958 687,-958 687,5 -4,5"/>
<!-- RedmineMySQLConnector -->
<g id="node3" class="node"><title>RedmineMySQLConnector</title>
<ellipse fill="none" stroke="black" cx="567" cy="-396" rx="114.209" ry="18"/>
<text text-anchor="middle" x="567" y="-391.4" font-family="Times New Roman,serif" font-size="14.00">RedmineMySQLConnector</text>
</g>
<!-- Class -->
<g id="node5" class="node"><title>Class</title>
<ellipse fill="none" stroke="black" cx="67" cy="-774" rx="31.0281" ry="18"/>
<text text-anchor="middle" x="67" y="-769.4" font-family="Times New Roman,serif" font-size="14.00">Class</text>
</g>
<!-- RedmineMySQLConnector&#45;&gt;Class -->
<g id="edge4" class="edge"><title>RedmineMySQLConnector&#45;&gt;Class</title>
<path fill="none" stroke="red" stroke-width="2" d="M559.867,-414.258C537.398,-469.215 462.472,-634.147 344,-713 271.256,-761.417 166.262,-772.021 108.683,-773.97"/>
<polygon fill="red" stroke="red" points="108.405,-770.476 98.5016,-774.24 108.591,-777.474 108.405,-770.476"/>
<text text-anchor="middle" x="293" y="-758.4" font-family="Times New Roman,serif" font-size="14.00">[S * 18] = 36.0 </text>
</g>
<!-- Connection -->
<g id="node7" class="node"><title>Connection</title>
<ellipse fill="none" stroke="black" cx="67" cy="-720" rx="53.838" ry="18"/>
<text text-anchor="middle" x="67" y="-715.4" font-family="Times New Roman,serif" font-size="14.00">Connection</text>
</g>
<!-- RedmineMySQLConnector&#45;&gt;Connection -->
<g id="edge6" class="edge"><title>RedmineMySQLConnector&#45;&gt;Connection</title>
<path fill="none" stroke="red" stroke-width="2" d="M556.667,-414.249C528.896,-461.546 447.675,-588.798 344,-652 278.188,-692.12 190.001,-708.591 130.979,-715.34"/>
<polygon fill="red" stroke="red" points="130.24,-711.899 120.674,-716.453 130.992,-718.859 130.24,-711.899"/>
<text text-anchor="middle" x="293" y="-696.4" font-family="Times New Roman,serif" font-size="14.00">[S * 19] = 38.0 </text>
</g>
<!-- Documents -->
<g id="node9" class="node"><title>Documents</title>
<ellipse fill="none" stroke="black" cx="67" cy="-666" rx="53.1641" ry="18"/>
<text text-anchor="middle" x="67" y="-661.4" font-family="Times New Roman,serif" font-size="14.00">Documents</text>
</g>
<!-- RedmineMySQLConnector&#45;&gt;Documents -->
<g id="edge8" class="edge"><title>RedmineMySQLConnector&#45;&gt;Documents</title>
<path fill="none" stroke="black" d="M551.959,-413.92C518.605,-452.486 434.225,-543.753 344,-592 274.744,-629.034 185.638,-648.527 127.456,-658.034"/>
<polygon fill="black" stroke="black" points="126.651,-654.618 117.322,-659.64 127.746,-661.531 126.651,-654.618"/>
<text text-anchor="middle" x="293" y="-635.4" font-family="Times New Roman,serif" font-size="14.00">[S * 12] = 24.0 </text>
</g>
<!-- DriverManager -->
<g id="node11" class="node"><title>DriverManager</title>
<ellipse fill="none" stroke="black" cx="67" cy="-612" rx="65.9119" ry="18"/>
<text text-anchor="middle" x="67" y="-607.4" font-family="Times New Roman,serif" font-size="14.00">DriverManager</text>
</g>
<!-- RedmineMySQLConnector&#45;&gt;DriverManager -->
<g id="edge10" class="edge"><title>RedmineMySQLConnector&#45;&gt;DriverManager</title>
<path fill="none" stroke="red" stroke-width="2" d="M544.257,-413.861C505.347,-443.617 422.577,-503.47 344,-538 274.894,-568.368 190.462,-588.724 133.11,-600.274"/>
<polygon fill="red" stroke="red" points="132.211,-596.884 123.082,-602.26 133.571,-603.751 132.211,-596.884"/>
<text text-anchor="middle" x="293" y="-575.4" font-family="Times New Roman,serif" font-size="14.00">[S * 18] = 36.0 </text>
</g>
<!-- I_list -->
<g id="node13" class="node"><title>I_list</title>
<ellipse fill="none" stroke="black" cx="67" cy="-558" rx="29.0158" ry="18"/>
<text text-anchor="middle" x="67" y="-553.4" font-family="Times New Roman,serif" font-size="14.00">I_list</text>
</g>
<!-- RedmineMySQLConnector&#45;&gt;I_list -->
<g id="edge12" class="edge"><title>RedmineMySQLConnector&#45;&gt;I_list</title>
<path fill="none" stroke="black" d="M530.98,-413.275C487.445,-433.661 411.603,-467.61 344,-490 260.315,-517.716 159.064,-539.769 105.148,-550.631"/>
<polygon fill="black" stroke="black" points="104.453,-547.201 95.331,-552.591 105.823,-554.066 104.453,-547.201"/>
<text text-anchor="middle" x="293" y="-521.4" font-family="Times New Roman,serif" font-size="14.00">[S * 9] = 18.0 </text>
</g>
<!-- Issue -->
<g id="node15" class="node"><title>Issue</title>
<ellipse fill="none" stroke="black" cx="67" cy="-504" rx="30.1869" ry="18"/>
<text text-anchor="middle" x="67" y="-499.4" font-family="Times New Roman,serif" font-size="14.00">Issue</text>
</g>
<!-- RedmineMySQLConnector&#45;&gt;Issue -->
<g id="edge14" class="edge"><title>RedmineMySQLConnector&#45;&gt;Issue</title>
<path fill="none" stroke="red" stroke-width="2" d="M506.596,-411.407C461.83,-422.635 399.262,-437.929 344,-450 259.41,-468.477 159.609,-487.177 105.907,-496.987"/>
<polygon fill="red" stroke="red" points="105.01,-493.593 95.799,-498.828 106.264,-500.479 105.01,-493.593"/>
<text text-anchor="middle" x="293" y="-473.4" font-family="Times New Roman,serif" font-size="14.00">[S * 170] = 340.0 </text>
</g>
<!-- J_list -->
<g id="node17" class="node"><title>J_list</title>
<ellipse fill="none" stroke="black" cx="67" cy="-450" rx="30.1869" ry="18"/>
<text text-anchor="middle" x="67" y="-445.4" font-family="Times New Roman,serif" font-size="14.00">J_list</text>
</g>
<!-- RedmineMySQLConnector&#45;&gt;J_list -->
<g id="edge16" class="edge"><title>RedmineMySQLConnector&#45;&gt;J_list</title>
<path fill="none" stroke="black" d="M472.366,-406.22C362.089,-418.13 184.991,-437.257 106.566,-445.727"/>
<polygon fill="black" stroke="black" points="106.181,-442.248 96.6145,-446.802 106.933,-449.208 106.181,-442.248"/>
<text text-anchor="middle" x="293" y="-433.4" font-family="Times New Roman,serif" font-size="14.00">[S * 2] = 4.0 </text>
</g>
<!-- Journal -->
<g id="node19" class="node"><title>Journal</title>
<ellipse fill="none" stroke="black" cx="67" cy="-396" rx="37.0651" ry="18"/>
<text text-anchor="middle" x="67" y="-391.4" font-family="Times New Roman,serif" font-size="14.00">Journal</text>
</g>
<!-- RedmineMySQLConnector&#45;&gt;Journal -->
<g id="edge18" class="edge"><title>RedmineMySQLConnector&#45;&gt;Journal</title>
<path fill="none" stroke="black" d="M452.29,-396C345.724,-396 192.227,-396 115.094,-396"/>
<polygon fill="black" stroke="black" points="114.73,-392.5 104.73,-396 114.73,-399.5 114.73,-392.5"/>
<text text-anchor="middle" x="293" y="-399.4" font-family="Times New Roman,serif" font-size="14.00">[S * 12] = 24.0 </text>
</g>
<!-- L_member -->
<g id="node21" class="node"><title>L_member</title>
<ellipse fill="none" stroke="black" cx="67" cy="-342" rx="51.1517" ry="18"/>
<text text-anchor="middle" x="67" y="-337.4" font-family="Times New Roman,serif" font-size="14.00">L_member</text>
</g>
<!-- RedmineMySQLConnector&#45;&gt;L_member -->
<g id="edge20" class="edge"><title>RedmineMySQLConnector&#45;&gt;L_member</title>
<path fill="none" stroke="black" d="M472.366,-385.78C370.617,-374.791 211.981,-357.658 126.454,-348.421"/>
<polygon fill="black" stroke="black" points="126.713,-344.929 116.395,-347.335 125.961,-351.888 126.713,-344.929"/>
<text text-anchor="middle" x="293" y="-373.4" font-family="Times New Roman,serif" font-size="14.00">[S * 1] = 2.0 </text>
</g>
<!-- M_list -->
<g id="node23" class="node"><title>M_list</title>
<ellipse fill="none" stroke="black" cx="67" cy="-288" rx="34.2118" ry="18"/>
<text text-anchor="middle" x="67" y="-283.4" font-family="Times New Roman,serif" font-size="14.00">M_list</text>
</g>
<!-- RedmineMySQLConnector&#45;&gt;M_list -->
<g id="edge22" class="edge"><title>RedmineMySQLConnector&#45;&gt;M_list</title>
<path fill="none" stroke="black" d="M508.039,-380.557C463.199,-369.033 399.899,-353.232 344,-341 261.32,-322.907 164.001,-305.083 109.51,-295.415"/>
<polygon fill="black" stroke="black" points="109.98,-291.943 99.5235,-293.649 108.761,-298.836 109.98,-291.943"/>
<text text-anchor="middle" x="293" y="-344.4" font-family="Times New Roman,serif" font-size="14.00">[S * 1] = 2.0 </text>
</g>
<!-- Members -->
<g id="node25" class="node"><title>Members</title>
<ellipse fill="none" stroke="black" cx="67" cy="-234" rx="45.7889" ry="18"/>
<text text-anchor="middle" x="67" y="-229.4" font-family="Times New Roman,serif" font-size="14.00">Members</text>
</g>
<!-- RedmineMySQLConnector&#45;&gt;Members -->
<g id="edge24" class="edge"><title>RedmineMySQLConnector&#45;&gt;Members</title>
<path fill="none" stroke="black" d="M532.199,-378.781C488.929,-357.899 412.413,-322.687 344,-300 267.358,-274.584 175.755,-254.733 119.481,-243.692"/>
<polygon fill="black" stroke="black" points="119.88,-240.204 109.397,-241.734 118.546,-247.076 119.88,-240.204"/>
<text text-anchor="middle" x="293" y="-303.4" font-family="Times New Roman,serif" font-size="14.00">[S * 4] = 8.0 </text>
</g>
<!-- Message -->
<g id="node27" class="node"><title>Message</title>
<ellipse fill="none" stroke="black" cx="67" cy="-180" rx="43.1021" ry="18"/>
<text text-anchor="middle" x="67" y="-175.4" font-family="Times New Roman,serif" font-size="14.00">Message</text>
</g>
<!-- RedmineMySQLConnector&#45;&gt;Message -->
<g id="edge26" class="edge"><title>RedmineMySQLConnector&#45;&gt;Message</title>
<path fill="none" stroke="black" d="M544.983,-378.131C506.496,-347.742 423.493,-285.903 344,-251 268.898,-218.025 175.361,-198.041 118.464,-188.013"/>
<polygon fill="black" stroke="black" points="118.729,-184.507 108.279,-186.256 117.539,-191.405 118.729,-184.507"/>
<text text-anchor="middle" x="293" y="-254.4" font-family="Times New Roman,serif" font-size="14.00">[S * 10] = 20.0 </text>
</g>
<!-- Project -->
<g id="node29" class="node"><title>Project</title>
<ellipse fill="none" stroke="black" cx="67" cy="-126" rx="37.0651" ry="18"/>
<text text-anchor="middle" x="67" y="-121.4" font-family="Times New Roman,serif" font-size="14.00">Project</text>
</g>
<!-- RedmineMySQLConnector&#45;&gt;Project -->
<g id="edge28" class="edge"><title>RedmineMySQLConnector&#45;&gt;Project</title>
<path fill="none" stroke="black" d="M552.276,-378.137C519.228,-339.244 434.897,-246.506 344,-198 269.304,-158.14 171.325,-139.444 114.15,-131.397"/>
<polygon fill="black" stroke="black" points="114.343,-127.891 103.964,-130.016 113.403,-134.828 114.343,-127.891"/>
<text text-anchor="middle" x="293" y="-201.4" font-family="Times New Roman,serif" font-size="14.00">[S * 7] = 14.0 </text>
</g>
<!-- ResultSet -->
<g id="node31" class="node"><title>ResultSet</title>
<ellipse fill="none" stroke="black" cx="67" cy="-72" rx="45.7889" ry="18"/>
<text text-anchor="middle" x="67" y="-67.4" font-family="Times New Roman,serif" font-size="14.00">ResultSet</text>
</g>
<!-- RedmineMySQLConnector&#45;&gt;ResultSet -->
<g id="edge30" class="edge"><title>RedmineMySQLConnector&#45;&gt;ResultSet</title>
<path fill="none" stroke="red" stroke-width="2" d="M556.9,-378.003C529.397,-330.747 448.205,-202.419 344,-139 275.322,-97.2028 182.227,-81.4723 123.382,-75.5573"/>
<polygon fill="red" stroke="red" points="123.451,-72.0483 113.166,-74.5945 122.794,-79.0174 123.451,-72.0483"/>
<text text-anchor="middle" x="293" y="-142.4" font-family="Times New Roman,serif" font-size="14.00">[S * 223] = 446.0 </text>
</g>
<!-- Statement -->
<g id="node33" class="node"><title>Statement</title>
<ellipse fill="none" stroke="black" cx="67" cy="-18" rx="47.1269" ry="18"/>
<text text-anchor="middle" x="67" y="-13.4" font-family="Times New Roman,serif" font-size="14.00">Statement</text>
</g>
<!-- RedmineMySQLConnector&#45;&gt;Statement -->
<g id="edge32" class="edge"><title>RedmineMySQLConnector&#45;&gt;Statement</title>
<path fill="none" stroke="red" stroke-width="2" d="M559.897,-377.667C537.512,-322.485 462.8,-156.903 344,-78 277.686,-33.9565 184.557,-21.6183 124.992,-18.502"/>
<polygon fill="red" stroke="red" points="124.786,-14.9893 114.639,-18.0356 124.471,-21.9822 124.786,-14.9893"/>
<text text-anchor="middle" x="293" y="-81.4" font-family="Times New Roman,serif" font-size="14.00">[S * 21] = 42.0 </text>
</g>
<!-- connector_main -->
<g id="node34" class="node"><title>connector_main</title>
<ellipse fill="none" stroke="black" cx="567" cy="-882" rx="71.107" ry="18"/>
<text text-anchor="middle" x="567" y="-877.4" font-family="Times New Roman,serif" font-size="14.00">connector_main</text>
</g>
<!-- System.out -->
<g id="node36" class="node"><title>System.out</title>
<ellipse fill="none" stroke="black" cx="67" cy="-936" rx="52.9948" ry="18"/>
<text text-anchor="middle" x="67" y="-931.4" font-family="Times New Roman,serif" font-size="14.00">System.out</text>
</g>
<!-- connector_main&#45;&gt;System.out -->
<g id="edge34" class="edge"><title>connector_main&#45;&gt;System.out</title>
<path fill="none" stroke="black" d="M501.634,-889.06C404.198,-899.583 222.22,-919.236 127.617,-929.453"/>
<polygon fill="black" stroke="black" points="127.199,-925.978 117.633,-930.532 127.951,-932.938 127.199,-925.978"/>
<text text-anchor="middle" x="293" y="-919.4" font-family="Times New Roman,serif" font-size="14.00">[S * 1] = 2.0 </text>
</g>
<!-- e -->
<g id="node38" class="node"><title>e</title>
<ellipse fill="none" stroke="black" cx="67" cy="-882" rx="27" ry="18"/>
<text text-anchor="middle" x="67" y="-877.4" font-family="Times New Roman,serif" font-size="14.00">e</text>
</g>
<!-- connector_main&#45;&gt;e -->
<g id="edge36" class="edge"><title>connector_main&#45;&gt;e</title>
<path fill="none" stroke="black" d="M495.893,-882C388.186,-882 187.449,-882 104.427,-882"/>
<polygon fill="black" stroke="black" points="104.206,-878.5 94.206,-882 104.206,-885.5 104.206,-878.5"/>
<text text-anchor="middle" x="293" y="-885.4" font-family="Times New Roman,serif" font-size="14.00">[S * 1] = 2.0 </text>
</g>
<!-- m -->
<g id="node40" class="node"><title>m</title>
<ellipse fill="none" stroke="black" cx="67" cy="-828" rx="27" ry="18"/>
<text text-anchor="middle" x="67" y="-823.4" font-family="Times New Roman,serif" font-size="14.00">m</text>
</g>
<!-- connector_main&#45;&gt;m -->
<g id="edge38" class="edge"><title>connector_main&#45;&gt;m</title>
<path fill="none" stroke="black" d="M501.634,-874.94C395.27,-863.453 188.162,-841.085 103.946,-831.99"/>
<polygon fill="black" stroke="black" points="104.15,-828.492 93.8324,-830.898 103.399,-835.452 104.15,-828.492"/>
<text text-anchor="middle" x="293" y="-859.4" font-family="Times New Roman,serif" font-size="14.00">[S * 2] = 4.0 </text>
</g>
</g>
</svg>
