<?xml version="1.0" encoding="UTF-8" standalone="no"?>
<!DOCTYPE svg PUBLIC "-//W3C//DTD SVG 1.1//EN"
 "http://www.w3.org/Graphics/SVG/1.1/DTD/svg11.dtd">
<!-- Generated by graphviz version 2.24.0 (20090616.2323)
 -->
<!-- Title: xx Pages: 1 -->
<svg width="1346pt" height="520pt"
 viewBox="0.00 0.00 1346.00 519.86" xmlns="http://www.w3.org/2000/svg" xmlns:xlink="http://www.w3.org/1999/xlink">
<g id="graph1" class="graph" transform="scale(1 1) rotate(0) translate(4 515.863)">
<title>xx</title>
<polygon fill="white" stroke="white" points="-4,5 -4,-515.863 1343,-515.863 1343,5 -4,5"/>
<g id="graph2" class="cluster"><title>clusterProfileTtest</title>
<polygon fill="none" stroke="blue" points="8,-73.8628 8,-503.863 1330,-503.863 1330,-73.8628 8,-73.8628"/>
<text text-anchor="middle" x="669" y="-463.863" font-family="Times New Roman,serif" font-size="40.00" fill="blue">[ProfileTtest]</text>
</g>
<!-- Common -->
<g id="node2" class="node"><title>Common</title>
<polygon fill="none" stroke="black" stroke-width="2" points="271,-360.863 49,-360.863 49,-324.863 271,-324.863 271,-360.863"/>
<text text-anchor="middle" x="160" y="-338.263" font-family="Times New Roman,serif" font-size="14.00">Common(4200000,2933.23674[ms]) </text>
</g>
<!-- ]
 -->
<g id="node3" class="node"><title>]
</title>
<ellipse fill="none" stroke="black" cx="1226" cy="-413.863" rx="27" ry="18"/>
<text text-anchor="middle" x="1226" y="-409.263" font-family="Times New Roman,serif" font-size="14.00">]</text>
</g>
<!-- Common1 -->
<g id="node4" class="node"><title>Common1</title>
<polygon fill="none" stroke="black" stroke-width="2" points="831,-333.863 603,-333.863 603,-297.863 831,-297.863 831,-333.863"/>
<text text-anchor="middle" x="717" y="-311.263" font-family="Times New Roman,serif" font-size="14.00">Common1(1200000,2933.23662[ms]) </text>
</g>
<!-- Common1&#45;&gt;Common -->
<g id="edge3" class="edge"><title>Common1&#45;&gt;Common</title>
<path fill="none" stroke="black" d="M602.196,-319.833C545.021,-321.949 474.852,-324.756 412,-327.863 369.437,-329.967 322.853,-332.636 281.442,-335.138"/>
<polygon fill="black" stroke="black" points="281.079,-331.654 271.31,-335.753 281.503,-338.641 281.079,-331.654"/>
<text text-anchor="middle" x="453" y="-331.263" font-family="Times New Roman,serif" font-size="14.00">[S * 2] = 4.0 </text>
</g>
<!-- Common2 -->
<g id="node5" class="node"><title>Common2</title>
<polygon fill="none" stroke="black" stroke-width="2" points="825,-387.863 609,-387.863 609,-351.863 825,-351.863 825,-387.863"/>
<text text-anchor="middle" x="717" y="-365.263" font-family="Times New Roman,serif" font-size="14.00">Common2(1200000,2538.378[ms]) </text>
</g>
<!-- Common2&#45;&gt;Common -->
<g id="edge5" class="edge"><title>Common2&#45;&gt;Common</title>
<path fill="none" stroke="black" d="M608.944,-364.625C514.987,-360.07 378.976,-353.477 281.312,-348.743"/>
<polygon fill="black" stroke="black" points="281.249,-345.236 271.091,-348.248 280.91,-352.228 281.249,-345.236"/>
<text text-anchor="middle" x="453" y="-361.263" font-family="Times New Roman,serif" font-size="14.00">[S * 4] = 8.0 </text>
</g>
<!-- Contents -->
<g id="node6" class="node"><title>Contents</title>
<polygon fill="none" stroke="black" stroke-width="2" points="830,-117.863 604,-117.863 604,-81.8628 830,-81.8628 830,-117.863"/>
<text text-anchor="middle" x="717" y="-95.2628" font-family="Times New Roman,serif" font-size="14.00">Contents(2400000,1523.026776[ms]) </text>
</g>
<!-- Control -->
<g id="node7" class="node"><title>Control</title>
<polygon fill="none" stroke="black" stroke-width="2" points="1255,-350.863 1197,-350.863 1197,-314.863 1255,-314.863 1255,-350.863"/>
<text text-anchor="middle" x="1226" y="-328.263" font-family="Times New Roman,serif" font-size="14.00">Control</text>
</g>
<!-- Data -->
<g id="node8" class="node"><title>Data</title>
<polygon fill="none" stroke="black" stroke-width="2" points="744,-171.863 690,-171.863 690,-135.863 744,-135.863 744,-171.863"/>
<text text-anchor="middle" x="717" y="-149.263" font-family="Times New Roman,serif" font-size="14.00">Data</text>
</g>
<!-- External -->
<g id="node9" class="node"><title>External</title>
<polygon fill="none" stroke="black" stroke-width="2" points="1313,-117.863 1139,-117.863 1139,-81.8628 1313,-81.8628 1313,-117.863"/>
<text text-anchor="middle" x="1226" y="-95.2628" font-family="Times New Roman,serif" font-size="14.00">External(6,2030.70264[ms]) </text>
</g>
<!-- SYSTEM LIB -->
<g id="node18" class="node"><title>SYSTEM LIB</title>
<ellipse fill="none" stroke="black" cx="160" cy="-47.8628" rx="65.0696" ry="18"/>
<text text-anchor="middle" x="160" y="-43.2628" font-family="Times New Roman,serif" font-size="14.00">SYSTEM LIB</text>
</g>
<!-- External&#45;&gt;SYSTEM LIB -->
<g id="edge7" class="edge"><title>External&#45;&gt;SYSTEM LIB</title>
<path fill="none" stroke="black" d="M1178.88,-81.8322C1137.98,-66.8548 1076.86,-46.0894 1022,-33.8628 730.786,31.037 370.433,-13.6236 225.189,-36.5717"/>
<polygon fill="black" stroke="black" points="224.428,-33.1488 215.107,-38.1846 225.534,-40.0609 224.428,-33.1488"/>
<text text-anchor="middle" x="717" y="-10.2628" font-family="Times New Roman,serif" font-size="14.00">[S * 5] = 10.0 </text>
</g>
<!-- External1 -->
<g id="node10" class="node"><title>External1</title>
<polygon fill="none" stroke="black" stroke-width="2" points="807,-225.863 627,-225.863 627,-189.863 807,-189.863 807,-225.863"/>
<text text-anchor="middle" x="717" y="-203.263" font-family="Times New Roman,serif" font-size="14.00">External1(12,5753.6568[ms]) </text>
</g>
<!-- External1&#45;&gt;SYSTEM LIB -->
<g id="edge9" class="edge"><title>External1&#45;&gt;SYSTEM LIB</title>
<path fill="none" stroke="black" d="M634.373,-189.789C623.43,-187.008 612.404,-184.008 602,-180.863 466.713,-139.963 440.796,-105.388 304,-69.8628 280.545,-63.7716 254.474,-59.1581 231.031,-55.7694"/>
<polygon fill="black" stroke="black" points="231.201,-52.2593 220.814,-54.3446 230.235,-59.1922 231.201,-52.2593"/>
<text text-anchor="middle" x="453" y="-145.263" font-family="Times New Roman,serif" font-size="14.00">[S * 6] = 12.0 </text>
</g>
<!-- External2 -->
<g id="node11" class="node"><title>External2</title>
<polygon fill="none" stroke="black" stroke-width="2" points="811,-279.863 623,-279.863 623,-243.863 811,-243.863 811,-279.863"/>
<text text-anchor="middle" x="717" y="-257.263" font-family="Times New Roman,serif" font-size="14.00">External2(12,5189.57286[ms]) </text>
</g>
<!-- External2&#45;&gt;SYSTEM LIB -->
<g id="edge11" class="edge"><title>External2&#45;&gt;SYSTEM LIB</title>
<path fill="none" stroke="black" d="M634.033,-243.81C623.196,-241.036 612.29,-238.031 602,-234.863 515.543,-208.24 489.767,-208.077 412,-161.863 357.794,-129.65 361.352,-96.0674 304,-69.8628 282.56,-60.0665 257.643,-54.4874 234.624,-51.3531"/>
<polygon fill="black" stroke="black" points="234.898,-47.8606 224.546,-50.1165 234.045,-54.8085 234.898,-47.8606"/>
<text text-anchor="middle" x="453" y="-205.263" font-family="Times New Roman,serif" font-size="14.00">[S * 6] = 12.0 </text>
</g>
<!-- SampleDataClass -->
<g id="node12" class="node"><title>SampleDataClass</title>
<polygon fill="none" stroke="black" stroke-width="2" points="304,-441.863 16,-441.863 16,-405.863 304,-405.863 304,-441.863"/>
<text text-anchor="middle" x="160" y="-419.263" font-family="Times New Roman,serif" font-size="14.00">SampleDataClass(240000000,168943.1634[ms]) </text>
</g>
<!-- SampleMain -->
<g id="node13" class="node"><title>SampleMain</title>
<polygon fill="none" stroke="black" stroke-width="2" points="1322,-242.863 1130,-242.863 1130,-206.863 1322,-206.863 1322,-242.863"/>
<text text-anchor="middle" x="1226" y="-220.263" font-family="Times New Roman,serif" font-size="14.00">SampleMain(6,4851.1224[ms]) </text>
</g>
<!-- SampleMain&#45;&gt;Common1 -->
<g id="edge13" class="edge"><title>SampleMain&#45;&gt;Common1</title>
<path fill="none" stroke="black" d="M1139.77,-242.905C1103.47,-250.316 1060.74,-258.797 1022,-265.863 962.864,-276.649 897.077,-287.57 841.785,-296.442"/>
<polygon fill="black" stroke="black" points="840.908,-293.038 831.587,-298.074 842.014,-299.95 840.908,-293.038"/>
<text text-anchor="middle" x="981" y="-283.263" font-family="Times New Roman,serif" font-size="14.00">[S * 2] = 4.0 </text>
</g>
<!-- SampleMain&#45;&gt;Common2 -->
<g id="edge15" class="edge"><title>SampleMain&#45;&gt;Common2</title>
<path fill="none" stroke="black" d="M1181.97,-242.891C1141.02,-259.218 1078.06,-283.196 1022,-299.863 955.282,-319.696 878.953,-337.21 819.343,-349.759"/>
<polygon fill="black" stroke="black" points="818.619,-346.335 809.548,-351.808 820.052,-353.186 818.619,-346.335"/>
<text text-anchor="middle" x="981" y="-323.263" font-family="Times New Roman,serif" font-size="14.00">[S * 2] = 4.0 </text>
</g>
<!-- SampleMain&#45;&gt;Contents -->
<g id="edge17" class="edge"><title>SampleMain&#45;&gt;Contents</title>
<path fill="none" stroke="black" d="M1167.37,-206.752C1126.76,-194.49 1071.33,-178.318 1022,-165.863 954.468,-148.812 877.843,-132.241 818.29,-119.969"/>
<polygon fill="black" stroke="black" points="818.63,-116.466 808.131,-117.883 817.222,-123.323 818.63,-116.466"/>
<text text-anchor="middle" x="981" y="-169.263" font-family="Times New Roman,serif" font-size="14.00">[S * 8] = 16.0 </text>
</g>
<!-- SampleMain&#45;&gt;Data -->
<g id="edge19" class="edge"><title>SampleMain&#45;&gt;Data</title>
<path fill="none" stroke="black" d="M1129.76,-211.094C1095.72,-206.247 1057.16,-200.783 1022,-195.863 925.572,-182.37 811.943,-166.813 754.417,-158.962"/>
<polygon fill="black" stroke="black" points="754.727,-155.472 744.346,-157.588 753.781,-162.407 754.727,-155.472"/>
<text text-anchor="middle" x="981" y="-199.263" font-family="Times New Roman,serif" font-size="14.00">[S * 1] = 2.0 </text>
</g>
<!-- SampleMain&#45;&gt;External1 -->
<g id="edge21" class="edge"><title>SampleMain&#45;&gt;External1</title>
<path fill="none" stroke="black" d="M1129.96,-221.655C1040.82,-218.678 908.614,-214.262 817.939,-211.234"/>
<polygon fill="black" stroke="black" points="818.033,-207.735 807.922,-210.899 817.799,-214.731 818.033,-207.735"/>
<text text-anchor="middle" x="981" y="-222.263" font-family="Times New Roman,serif" font-size="14.00">[S * 2] = 4.0 </text>
</g>
<!-- SampleMain&#45;&gt;External2 -->
<g id="edge23" class="edge"><title>SampleMain&#45;&gt;External2</title>
<path fill="none" stroke="black" d="M1129.96,-231.844C1041.94,-238.243 911.902,-247.695 821.348,-254.278"/>
<polygon fill="black" stroke="black" points="821.055,-250.79 811.335,-255.005 821.563,-257.771 821.055,-250.79"/>
<text text-anchor="middle" x="981" y="-249.263" font-family="Times New Roman,serif" font-size="14.00">[S * 2] = 4.0 </text>
</g>
<!-- Stamp -->
<g id="node14" class="node"><title>Stamp</title>
<polygon fill="none" stroke="black" stroke-width="2" points="803,-441.863 631,-441.863 631,-405.863 803,-405.863 803,-441.863"/>
<text text-anchor="middle" x="717" y="-419.263" font-family="Times New Roman,serif" font-size="14.00">Stamp(60,228002.742[ms]) </text>
</g>
<!-- SampleMain&#45;&gt;Stamp -->
<g id="edge27" class="edge"><title>SampleMain&#45;&gt;Stamp</title>
<path fill="none" stroke="black" d="M1198.63,-242.907C1160.39,-267.495 1088.21,-311.681 1022,-339.863 940.879,-374.389 917.176,-374.11 832,-396.863 823.722,-399.074 815.084,-401.282 806.423,-403.43"/>
<polygon fill="black" stroke="black" points="805.531,-400.045 796.652,-405.826 807.198,-406.844 805.531,-400.045"/>
<text text-anchor="middle" x="981" y="-372.263" font-family="Times New Roman,serif" font-size="14.00">[S * 1] = 2.0 </text>
</g>
<!-- SampleMain&#45;&gt;SYSTEM LIB -->
<g id="edge25" class="edge"><title>SampleMain&#45;&gt;SYSTEM LIB</title>
<path fill="none" stroke="red" stroke-width="2" d="M1195.21,-206.751C1130.59,-169.885 974.964,-87.0689 832,-56.8628 616.591,-11.3502 353.634,-28.0417 230.256,-39.9643"/>
<polygon fill="red" stroke="red" points="229.794,-36.4928 220.186,-40.957 230.481,-43.459 229.794,-36.4928"/>
<text text-anchor="middle" x="717" y="-60.2628" font-family="Times New Roman,serif" font-size="14.00">[S * 27] = 54.0 </text>
</g>
<!-- Stamp&#45;&gt;SampleDataClass -->
<g id="edge29" class="edge"><title>Stamp&#45;&gt;SampleDataClass</title>
<path fill="none" stroke="black" d="M630.885,-423.863C546.586,-423.863 416.301,-423.863 314.124,-423.863"/>
<polygon fill="black" stroke="black" points="314.013,-420.363 304.013,-423.863 314.013,-427.363 314.013,-420.363"/>
<text text-anchor="middle" x="453" y="-427.263" font-family="Times New Roman,serif" font-size="14.00">[S * 4] = 8.0 </text>
</g>
</g>
</svg>
