<?xml version="1.0" encoding="UTF-8" standalone="no"?>
<!DOCTYPE svg PUBLIC "-//W3C//DTD SVG 1.1//EN"
 "http://www.w3.org/Graphics/SVG/1.1/DTD/svg11.dtd">
<!-- Generated by graphviz version 2.24.0 (20090616.2323)
 -->
<!-- Title: xx Pages: 1 -->
<svg width="1272pt" height="1101pt"
 viewBox="0.00 0.00 1272.00 1101.20" xmlns="http://www.w3.org/2000/svg" xmlns:xlink="http://www.w3.org/1999/xlink">
<g id="graph1" class="graph" transform="scale(1 1) rotate(0) translate(4 1097.2)">
<title>xx</title>
<polygon fill="white" stroke="white" points="-4,5 -4,-1097.2 1269,-1097.2 1269,5 -4,5"/>
<g id="graph2" class="cluster"><title>clusterProfileTtest</title>
<polygon fill="none" stroke="blue" points="482,-438.202 482,-814.202 1256,-814.202 1256,-438.202 482,-438.202"/>
<text text-anchor="middle" x="869" y="-774.202" font-family="Times New Roman,serif" font-size="40.00" fill="blue">[ProfileTtest]</text>
</g>
<!-- ArrayList -->
<g id="node2" class="node"><title>ArrayList</title>
<polygon fill="none" stroke="black" points="632,-698.202 534,-698.202 534,-662.202 632,-662.202 632,-698.202"/>
<text text-anchor="middle" x="583" y="-675.602" font-family="Times New Roman,serif" font-size="14.00">ArrayList(1,3) </text>
</g>
<!-- Integer -->
<g id="node12" class="node"><title>Integer</title>
<ellipse fill="none" stroke="black" cx="77" cy="-718.202" rx="36.2243" ry="18"/>
<text text-anchor="middle" x="77" y="-713.602" font-family="Times New Roman,serif" font-size="14.00">Integer</text>
</g>
<!-- ArrayList&#45;&gt;Integer -->
<g id="edge3" class="edge"><title>ArrayList&#45;&gt;Integer</title>
<path fill="none" stroke="black" d="M533.373,-685.268C515.719,-689.07 496.616,-695.691 482,-707.202 408.878,-764.788 461.999,-843.63 382,-891.202 336.159,-918.462 310.631,-913.1 262,-891.202 195.97,-861.469 208.652,-816.712 154,-769.202 140.371,-757.354 123.831,-746.06 109.579,-737.126"/>
<polygon fill="black" stroke="black" points="111.399,-734.137 101.047,-731.884 107.735,-740.101 111.399,-734.137"/>
<text text-anchor="middle" x="322" y="-912.602" font-family="Times New Roman,serif" font-size="14.00">[E * 1] = 6.0 </text>
</g>
<!-- arr -->
<g id="node14" class="node"><title>arr</title>
<ellipse fill="none" stroke="black" cx="77" cy="-582.202" rx="27" ry="18"/>
<text text-anchor="middle" x="77" y="-577.602" font-family="Times New Roman,serif" font-size="14.00">arr</text>
</g>
<!-- ArrayList&#45;&gt;arr -->
<g id="edge5" class="edge"><title>ArrayList&#45;&gt;arr</title>
<path fill="none" stroke="black" d="M533.395,-693.338C517.02,-697.708 498.719,-702.627 482,-707.202 386.929,-733.218 354.742,-768.583 262,-735.202 190.478,-709.458 126.969,-642.742 96.3551,-606.498"/>
<polygon fill="black" stroke="black" points="98.7189,-603.865 89.6395,-598.405 93.3321,-608.336 98.7189,-603.865"/>
<text text-anchor="middle" x="322" y="-752.602" font-family="Times New Roman,serif" font-size="14.00">[S * 1][E * 2] = 14.0 </text>
</g>
<!-- Common1 -->
<g id="node3" class="node"><title>Common1</title>
<polygon fill="none" stroke="black" points="676,-536.202 490,-536.202 490,-500.202 676,-500.202 676,-536.202"/>
<text text-anchor="middle" x="583" y="-513.602" font-family="Times New Roman,serif" font-size="14.00">Common1(1,3,0,531.687[ms])</text>
</g>
<!-- Common -->
<g id="node16" class="node"><title>Common</title>
<ellipse fill="none" stroke="black" cx="77" cy="-274.202" rx="45.7889" ry="18"/>
<text text-anchor="middle" x="77" y="-269.602" font-family="Times New Roman,serif" font-size="14.00">Common</text>
</g>
<!-- Common1&#45;&gt;Common -->
<g id="edge7" class="edge"><title>Common1&#45;&gt;Common</title>
<path fill="none" stroke="black" d="M497.545,-500.097C492.085,-497.517 486.843,-494.569 482,-491.202 418.922,-447.344 445.449,-393.522 382,-350.202 306.28,-298.504 198.579,-281.929 133.489,-276.643"/>
<polygon fill="black" stroke="black" points="133.653,-273.146 123.42,-275.888 133.13,-280.126 133.653,-273.146"/>
<text text-anchor="middle" x="322" y="-353.602" font-family="Times New Roman,serif" font-size="14.00">[S * 2] = 4.0 </text>
</g>
<!-- Control -->
<g id="node4" class="node"><title>Control</title>
<polygon fill="none" stroke="black" points="1189,-752.202 1091,-752.202 1091,-716.202 1189,-716.202 1189,-752.202"/>
<text text-anchor="middle" x="1140" y="-729.602" font-family="Times New Roman,serif" font-size="14.00">Control(2,8,0) </text>
</g>
<!-- Boolean -->
<g id="node20" class="node"><title>Boolean</title>
<ellipse fill="none" stroke="black" cx="583" cy="-1073.2" rx="41.0898" ry="18"/>
<text text-anchor="middle" x="583" y="-1068.6" font-family="Times New Roman,serif" font-size="14.00">Boolean</text>
</g>
<!-- Control&#45;&gt;Boolean -->
<g id="edge11" class="edge"><title>Control&#45;&gt;Boolean</title>
<path fill="none" stroke="black" d="M1133.18,-752.478C1111.91,-806.615 1041.12,-966.633 924,-1035.2 832.443,-1088.81 703.226,-1086.22 633.069,-1079.68"/>
<polygon fill="black" stroke="black" points="633.043,-1076.16 622.744,-1078.65 632.347,-1083.12 633.043,-1076.16"/>
<text text-anchor="middle" x="854" y="-1080.6" font-family="Times New Roman,serif" font-size="14.00">[E * 1] = 6.0 </text>
</g>
<!-- Data -->
<g id="node5" class="node"><title>Data</title>
<polygon fill="none" stroke="black" points="624,-482.202 542,-482.202 542,-446.202 624,-446.202 624,-482.202"/>
<text text-anchor="middle" x="583" y="-459.602" font-family="Times New Roman,serif" font-size="14.00">Data(2,7,0) </text>
</g>
<!-- External -->
<g id="node6" class="node"><title>External</title>
<polygon fill="none" stroke="black" points="1194,-617.202 1086,-617.202 1086,-581.202 1194,-581.202 1194,-617.202"/>
<text text-anchor="middle" x="1140" y="-594.602" font-family="Times New Roman,serif" font-size="14.00">External(1,21,0) </text>
</g>
<!-- External&#45;&gt;ArrayList -->
<g id="edge13" class="edge"><title>External&#45;&gt;ArrayList</title>
<path fill="none" stroke="black" d="M1085.87,-614.647C1042.46,-626.445 979.78,-642.169 924,-651.202 871.498,-659.704 725.652,-670.498 642.7,-676.22"/>
<polygon fill="black" stroke="black" points="642.396,-672.732 632.659,-676.909 642.876,-679.716 642.396,-672.732"/>
<text text-anchor="middle" x="854" y="-668.602" font-family="Times New Roman,serif" font-size="14.00">[S * 1] = 2.0 </text>
</g>
<!-- External&#45;&gt;arr -->
<g id="edge21" class="edge"><title>External&#45;&gt;arr</title>
<path fill="none" stroke="black" d="M1118.66,-581.064C1081.69,-550.693 1002.14,-489.961 924,-460.202 819.729,-420.49 787.238,-429.895 676,-421.202 584.273,-414.034 348.055,-393.649 262,-426.202 190.152,-453.381 126.563,-521.314 96.0871,-557.922"/>
<polygon fill="black" stroke="black" points="93.0317,-556.129 89.4086,-566.085 98.4496,-560.562 93.0317,-556.129"/>
<text text-anchor="middle" x="583" y="-424.602" font-family="Times New Roman,serif" font-size="14.00">[S * 1][E * 2] = 14.0 </text>
</g>
<!-- BufferedReader -->
<g id="node23" class="node"><title>BufferedReader</title>
<ellipse fill="none" stroke="black" cx="77" cy="-381.202" rx="69.9366" ry="18"/>
<text text-anchor="middle" x="77" y="-376.602" font-family="Times New Roman,serif" font-size="14.00">BufferedReader</text>
</g>
<!-- External&#45;&gt;BufferedReader -->
<g id="edge15" class="edge"><title>External&#45;&gt;BufferedReader</title>
<path fill="none" stroke="black" d="M1120.87,-580.856C1098.97,-559.67 1062.22,-523.574 1032,-491.202 982.131,-437.776 986.753,-404.662 924,-367.202 797.232,-291.529 407.228,-284.645 262,-311.202 210.68,-320.587 155.117,-343.486 118.422,-360.554"/>
<polygon fill="black" stroke="black" points="116.603,-357.542 109.053,-364.976 119.59,-363.872 116.603,-357.542"/>
<text text-anchor="middle" x="583" y="-310.602" font-family="Times New Roman,serif" font-size="14.00">[S * 1][E * 3] = 20.0 </text>
</g>
<!-- FileReader -->
<g id="node25" class="node"><title>FileReader</title>
<ellipse fill="none" stroke="black" cx="77" cy="-445.202" rx="50.9823" ry="18"/>
<text text-anchor="middle" x="77" y="-440.602" font-family="Times New Roman,serif" font-size="14.00">FileReader</text>
</g>
<!-- External&#45;&gt;FileReader -->
<g id="edge17" class="edge"><title>External&#45;&gt;FileReader</title>
<path fill="none" stroke="black" d="M1123.86,-581.127C1090.46,-544.957 1009.66,-463.756 924,-424.202 701.535,-321.48 625.997,-345.742 382,-323.202 328.893,-318.296 312.397,-305.749 262,-323.202 204.28,-343.192 205.838,-375.892 154,-408.202 143.075,-415.011 130.707,-421.456 119.13,-427.002"/>
<polygon fill="black" stroke="black" points="117.633,-423.838 110.058,-431.246 120.599,-430.179 117.633,-423.838"/>
<text text-anchor="middle" x="583" y="-348.602" font-family="Times New Roman,serif" font-size="14.00">[E * 1] = 6.0 </text>
</g>
<!-- String -->
<g id="node27" class="node"><title>String</title>
<ellipse fill="none" stroke="black" cx="77" cy="-921.202" rx="32.8702" ry="18"/>
<text text-anchor="middle" x="77" y="-916.602" font-family="Times New Roman,serif" font-size="14.00">String</text>
</g>
<!-- External&#45;&gt;String -->
<g id="edge19" class="edge"><title>External&#45;&gt;String</title>
<path fill="none" stroke="black" d="M1122,-617.329C1050.47,-688.849 785.004,-949.476 676,-989.202 472.757,-1063.27 207.245,-973.414 112.494,-936.046"/>
<polygon fill="black" stroke="black" points="113.671,-932.747 103.086,-932.285 111.073,-939.247 113.671,-932.747"/>
<text text-anchor="middle" x="583" y="-1020.6" font-family="Times New Roman,serif" font-size="14.00">[E * 1] = 6.0 </text>
</g>
<!-- e1 -->
<g id="node30" class="node"><title>e1</title>
<ellipse fill="none" stroke="black" cx="77" cy="-796.202" rx="27" ry="18"/>
<text text-anchor="middle" x="77" y="-791.602" font-family="Times New Roman,serif" font-size="14.00">e1</text>
</g>
<!-- External&#45;&gt;e1 -->
<g id="edge23" class="edge"><title>External&#45;&gt;e1</title>
<path fill="none" stroke="black" d="M1110.8,-617.251C1012.65,-676.732 683.752,-866.365 382,-929.202 329.787,-940.075 312.764,-945.556 262,-929.202 194.378,-907.417 130.582,-850.737 98.5274,-818.847"/>
<polygon fill="black" stroke="black" points="100.965,-816.334 91.4444,-811.686 95.9882,-821.257 100.965,-816.334"/>
<text text-anchor="middle" x="583" y="-904.602" font-family="Times New Roman,serif" font-size="14.00">[S * 1][E * 2] = 14.0 </text>
</g>
<!-- External1 -->
<g id="node7" class="node"><title>External1</title>
<polygon fill="none" stroke="black" points="640,-590.202 526,-590.202 526,-554.202 640,-554.202 640,-590.202"/>
<text text-anchor="middle" x="583" y="-567.602" font-family="Times New Roman,serif" font-size="14.00">External1(1,26,1) </text>
</g>
<!-- External1&#45;&gt;Integer -->
<g id="edge29" class="edge"><title>External1&#45;&gt;Integer</title>
<path fill="none" stroke="black" d="M525.311,-558.16C459.443,-544.913 349.501,-531.391 262,-563.202 190.243,-589.289 126.908,-656.77 96.3616,-693.499"/>
<polygon fill="black" stroke="black" points="93.6248,-691.317 90.004,-701.274 99.0437,-695.748 93.6248,-691.317"/>
<text text-anchor="middle" x="322" y="-566.602" font-family="Times New Roman,serif" font-size="14.00">[S * 1][E * 2] = 14.0 </text>
</g>
<!-- External1&#45;&gt;arr -->
<g id="edge33" class="edge"><title>External1&#45;&gt;arr</title>
<path fill="none" stroke="red" stroke-width="2" d="M525.287,-556.828C476.165,-544.038 409.347,-527.422 382,-524.202 329.033,-517.965 314.719,-516.132 262,-524.202 206.953,-532.629 145.788,-554.388 109.405,-568.728"/>
<polygon fill="red" stroke="red" points="107.811,-565.595 99.8254,-572.558 110.41,-572.095 107.811,-565.595"/>
<text text-anchor="middle" x="322" y="-527.602" font-family="Times New Roman,serif" font-size="14.00">[S * 3][E * 6] = 43.0 </text>
</g>
<!-- External1&#45;&gt;BufferedReader -->
<g id="edge25" class="edge"><title>External1&#45;&gt;BufferedReader</title>
<path fill="none" stroke="black" d="M525.491,-564.085C510.419,-560.084 494.816,-554.113 482,-545.202 418.922,-501.344 448.878,-442.015 382,-404.202 309.712,-363.33 211.926,-363.811 146.769,-370.373"/>
<polygon fill="black" stroke="black" points="146.166,-366.918 136.601,-371.473 146.919,-373.877 146.166,-366.918"/>
<text text-anchor="middle" x="322" y="-407.602" font-family="Times New Roman,serif" font-size="14.00">[S * 1][E * 3] = 20.0 </text>
</g>
<!-- External1&#45;&gt;FileReader -->
<g id="edge27" class="edge"><title>External1&#45;&gt;FileReader</title>
<path fill="none" stroke="black" d="M525.397,-562.289C510.645,-558.303 495.225,-552.788 482,-545.202 427.751,-514.084 439.801,-470.085 382,-446.202 299.367,-412.059 193.053,-422.52 130.245,-433.6"/>
<polygon fill="black" stroke="black" points="129.376,-430.201 120.172,-435.449 130.639,-437.086 129.376,-430.201"/>
<text text-anchor="middle" x="322" y="-449.602" font-family="Times New Roman,serif" font-size="14.00">[E * 1] = 6.0 </text>
</g>
<!-- External1&#45;&gt;String -->
<g id="edge31" class="edge"><title>External1&#45;&gt;String</title>
<path fill="none" stroke="black" d="M525.44,-578.599C510.027,-582.576 494.261,-588.966 482,-599.202 402.028,-665.967 464.831,-748.018 382,-811.202 338.951,-844.04 313.549,-815.643 262,-832.202 205.618,-850.314 144.494,-882.406 108.533,-902.702"/>
<polygon fill="black" stroke="black" points="106.471,-899.848 99.517,-907.841 109.938,-905.93 106.471,-899.848"/>
<text text-anchor="middle" x="322" y="-835.602" font-family="Times New Roman,serif" font-size="14.00">[E * 1] = 6.0 </text>
</g>
<!-- External1&#45;&gt;e1 -->
<g id="edge35" class="edge"><title>External1&#45;&gt;e1</title>
<path fill="none" stroke="black" d="M525.295,-585.73C510.991,-589.601 495.809,-594.157 482,-599.202 435.874,-616.055 428.262,-629.724 382,-646.202 330.212,-664.648 312.414,-654.278 262,-676.202 253.596,-679.857 154.242,-745.194 104.712,-777.885"/>
<polygon fill="black" stroke="black" points="102.776,-774.969 96.3596,-783.4 106.633,-780.81 102.776,-774.969"/>
<text text-anchor="middle" x="322" y="-679.602" font-family="Times New Roman,serif" font-size="14.00">[S * 1][E * 2] = 14.0 </text>
</g>
<!-- External2 -->
<g id="node8" class="node"><title>External2</title>
<polygon fill="none" stroke="black" points="640,-644.202 526,-644.202 526,-608.202 640,-608.202 640,-644.202"/>
<text text-anchor="middle" x="583" y="-621.602" font-family="Times New Roman,serif" font-size="14.00">External2(1,26,1) </text>
</g>
<!-- External2&#45;&gt;Integer -->
<g id="edge41" class="edge"><title>External2&#45;&gt;Integer</title>
<path fill="none" stroke="black" d="M525.41,-640.053C511.103,-643.916 495.891,-648.387 482,-653.202 436.289,-669.046 429.003,-684.747 382,-696.202 292.47,-718.022 184.13,-720.366 123.648,-719.614"/>
<polygon fill="black" stroke="black" points="123.34,-716.109 113.285,-719.449 123.228,-723.108 123.34,-716.109"/>
<text text-anchor="middle" x="322" y="-718.602" font-family="Times New Roman,serif" font-size="14.00">[S * 1][E * 2] = 14.0 </text>
</g>
<!-- External2&#45;&gt;arr -->
<g id="edge45" class="edge"><title>External2&#45;&gt;arr</title>
<path fill="none" stroke="red" stroke-width="2" d="M525.401,-627.657C461.006,-628.613 353.717,-628.198 262,-618.202 209.373,-612.467 149.375,-599.602 112.342,-590.91"/>
<polygon fill="red" stroke="red" points="113.069,-587.485 102.531,-588.578 111.451,-594.296 113.069,-587.485"/>
<text text-anchor="middle" x="322" y="-629.602" font-family="Times New Roman,serif" font-size="14.00">[S * 3][E * 6] = 43.0 </text>
</g>
<!-- External2&#45;&gt;BufferedReader -->
<g id="edge37" class="edge"><title>External2&#45;&gt;BufferedReader</title>
<path fill="none" stroke="black" d="M525.371,-616.334C510.62,-612.347 495.206,-606.821 482,-599.202 427.558,-567.791 435.838,-531.638 382,-499.202 334.195,-470.4 314.314,-481.648 262,-462.202 212.372,-443.755 156.923,-418.887 119.787,-401.592"/>
<polygon fill="black" stroke="black" points="120.828,-398.215 110.288,-397.147 117.862,-404.555 120.828,-398.215"/>
<text text-anchor="middle" x="322" y="-502.602" font-family="Times New Roman,serif" font-size="14.00">[S * 1][E * 3] = 20.0 </text>
</g>
<!-- External2&#45;&gt;FileReader -->
<g id="edge39" class="edge"><title>External2&#45;&gt;FileReader</title>
<path fill="none" stroke="black" d="M525.484,-618.135C434.771,-605.361 268.066,-581.668 262,-579.202 198.058,-553.207 135.549,-500.621 102.08,-469.616"/>
<polygon fill="black" stroke="black" points="104.292,-466.891 94.6049,-462.6 99.5012,-471.995 104.292,-466.891"/>
<text text-anchor="middle" x="322" y="-601.602" font-family="Times New Roman,serif" font-size="14.00">[E * 1] = 6.0 </text>
</g>
<!-- External2&#45;&gt;String -->
<g id="edge43" class="edge"><title>External2&#45;&gt;String</title>
<path fill="none" stroke="black" d="M525.341,-632.865C510.014,-636.85 494.317,-643.177 482,-653.202 405.231,-715.687 461.918,-793.8 382,-852.202 338.403,-884.062 314.806,-859.919 262,-871.202 210.996,-882.1 153.087,-898.4 115.854,-909.399"/>
<polygon fill="black" stroke="black" points="114.511,-906.147 105.924,-912.352 116.507,-912.857 114.511,-906.147"/>
<text text-anchor="middle" x="322" y="-874.602" font-family="Times New Roman,serif" font-size="14.00">[E * 1] = 6.0 </text>
</g>
<!-- External2&#45;&gt;e1 -->
<g id="edge47" class="edge"><title>External2&#45;&gt;e1</title>
<path fill="none" stroke="black" d="M525.24,-635.345C510.412,-639.34 494.992,-645.052 482,-653.202 424.339,-689.375 442.569,-738.143 382,-769.202 336.22,-792.677 185.301,-796.089 114.408,-796.356"/>
<polygon fill="black" stroke="black" points="114.142,-792.857 104.148,-796.375 114.155,-799.857 114.142,-792.857"/>
<text text-anchor="middle" x="322" y="-794.602" font-family="Times New Roman,serif" font-size="14.00">[S * 1][E * 2] = 14.0 </text>
</g>
<!-- SampleMain -->
<g id="node9" class="node"><title>SampleMain</title>
<polygon fill="none" stroke="black" points="1248,-482.202 1032,-482.202 1032,-446.202 1248,-446.202 1248,-482.202"/>
<text text-anchor="middle" x="1140" y="-459.602" font-family="Times New Roman,serif" font-size="14.00">SampleMain(1,91,1,742.99854[ms])</text>
</g>
<!-- SampleMain&#45;&gt;Common1 -->
<g id="edge49" class="edge"><title>SampleMain&#45;&gt;Common1</title>
<path fill="none" stroke="black" d="M1031.94,-474.678C932.081,-484.359 784.71,-498.647 686.369,-508.181"/>
<polygon fill="black" stroke="black" points="686.029,-504.697 676.414,-509.146 686.705,-511.664 686.029,-504.697"/>
<text text-anchor="middle" x="854" y="-501.602" font-family="Times New Roman,serif" font-size="14.00">[S * 2] = 4.0 </text>
</g>
<!-- SampleMain&#45;&gt;Data -->
<g id="edge55" class="edge"><title>SampleMain&#45;&gt;Data</title>
<path fill="none" stroke="black" d="M1031.94,-464.202C912.196,-464.202 724.138,-464.202 634.217,-464.202"/>
<polygon fill="black" stroke="black" points="634.008,-460.702 624.008,-464.202 634.008,-467.702 634.008,-460.702"/>
<text text-anchor="middle" x="854" y="-467.602" font-family="Times New Roman,serif" font-size="14.00">[S * 1] = 2.0 </text>
</g>
<!-- SampleMain&#45;&gt;External1 -->
<g id="edge57" class="edge"><title>SampleMain&#45;&gt;External1</title>
<path fill="none" stroke="black" d="M1074.17,-482.259C1031.56,-493.55 974.754,-507.86 924,-518.202 829.869,-537.383 719.945,-553.713 650.898,-563.243"/>
<polygon fill="black" stroke="black" points="650.027,-559.83 640.595,-564.656 650.978,-566.765 650.027,-559.83"/>
<text text-anchor="middle" x="854" y="-547.602" font-family="Times New Roman,serif" font-size="14.00">[S * 2] = 4.0 </text>
</g>
<!-- SampleMain&#45;&gt;External2 -->
<g id="edge59" class="edge"><title>SampleMain&#45;&gt;External2</title>
<path fill="none" stroke="black" d="M1107.74,-482.309C1066.4,-504.757 991.957,-542.679 924,-564.202 874.183,-579.98 734.993,-602.888 650.637,-615.988"/>
<polygon fill="black" stroke="black" points="649.979,-612.549 640.632,-617.536 651.049,-619.466 649.979,-612.549"/>
<text text-anchor="middle" x="854" y="-596.602" font-family="Times New Roman,serif" font-size="14.00">[S * 2] = 4.0 </text>
</g>
<!-- Stamp -->
<g id="node10" class="node"><title>Stamp</title>
<polygon fill="none" stroke="black" points="664,-752.202 502,-752.202 502,-716.202 664,-716.202 664,-752.202"/>
<text text-anchor="middle" x="583" y="-729.602" font-family="Times New Roman,serif" font-size="14.00">Stamp(2,7,37708.88[ms]) </text>
</g>
<!-- SampleMain&#45;&gt;Stamp -->
<g id="edge63" class="edge"><title>SampleMain&#45;&gt;Stamp</title>
<path fill="none" stroke="black" d="M1120.36,-482.266C1084.42,-514.17 1004.36,-580.058 924,-611.202 865.393,-633.915 842.427,-608.031 784,-631.202 729.44,-652.839 728.904,-681.784 676,-707.202 672.164,-709.045 668.178,-710.787 664.108,-712.431"/>
<polygon fill="black" stroke="black" points="662.594,-709.262 654.491,-716.089 665.082,-715.805 662.594,-709.262"/>
<text text-anchor="middle" x="854" y="-634.602" font-family="Times New Roman,serif" font-size="14.00">[S * 1] = 2.0 </text>
</g>
<!-- Common2 -->
<g id="node17" class="node"><title>Common2</title>
<ellipse fill="none" stroke="black" cx="583" cy="-188.202" rx="49.8134" ry="18"/>
<text text-anchor="middle" x="583" y="-183.602" font-family="Times New Roman,serif" font-size="14.00">Common2</text>
</g>
<!-- SampleMain&#45;&gt;Common2 -->
<g id="edge51" class="edge"><title>SampleMain&#45;&gt;Common2</title>
<path fill="none" stroke="black" d="M1130.91,-446.196C1105.71,-398.446 1029.74,-268.601 924,-215.202 832.927,-169.211 710.515,-172.789 639.844,-180.118"/>
<polygon fill="black" stroke="black" points="639.36,-176.65 629.802,-181.221 640.125,-183.608 639.36,-176.65"/>
<text text-anchor="middle" x="854" y="-218.602" font-family="Times New Roman,serif" font-size="14.00">[S * 2] = 4.0 </text>
</g>
<!-- SampleMain&#45;&gt;String -->
<g id="edge65" class="edge"><title>SampleMain&#45;&gt;String</title>
<path fill="none" stroke="black" d="M1121.53,-482.421C1099.92,-503.79 1063.14,-540.348 1032,-572.202 877.108,-730.638 880.602,-836.163 676,-921.202 480.073,-1002.64 215.969,-954.265 116.812,-931.27"/>
<polygon fill="black" stroke="black" points="117.452,-927.825 106.915,-928.931 115.842,-934.637 117.452,-927.825"/>
<text text-anchor="middle" x="583" y="-966.602" font-family="Times New Roman,serif" font-size="14.00">[E * 1] = 6.0 </text>
</g>
<!-- Contents -->
<g id="node46" class="node"><title>Contents</title>
<ellipse fill="none" stroke="black" cx="583" cy="-134.202" rx="43.7767" ry="18"/>
<text text-anchor="middle" x="583" y="-129.602" font-family="Times New Roman,serif" font-size="14.00">Contents</text>
</g>
<!-- SampleMain&#45;&gt;Contents -->
<g id="edge53" class="edge"><title>SampleMain&#45;&gt;Contents</title>
<path fill="none" stroke="black" d="M1133.52,-445.873C1112.98,-390.835 1043.51,-226.661 924,-159.202 832.234,-107.403 703.765,-115.421 633.621,-125.206"/>
<polygon fill="black" stroke="black" points="633.095,-121.745 623.706,-126.655 634.108,-128.671 633.095,-121.745"/>
<text text-anchor="middle" x="854" y="-162.602" font-family="Times New Roman,serif" font-size="14.00">[S * 4] = 8.0 </text>
</g>
<!-- FileWriter -->
<g id="node51" class="node"><title>FileWriter</title>
<ellipse fill="none" stroke="black" cx="583" cy="-80.202" rx="47.8011" ry="18"/>
<text text-anchor="middle" x="583" y="-75.602" font-family="Times New Roman,serif" font-size="14.00">FileWriter</text>
</g>
<!-- SampleMain&#45;&gt;FileWriter -->
<g id="edge61" class="edge"><title>SampleMain&#45;&gt;FileWriter</title>
<path fill="none" stroke="red" stroke-width="2" d="M1135.62,-446C1119.75,-384.473 1058.91,-183.504 924,-101.202 834.474,-46.5879 705.956,-57.3948 635.008,-69.3078"/>
<polygon fill="red" stroke="red" points="634.216,-65.8932 624.97,-71.0658 635.424,-72.7882 634.216,-65.8932"/>
<text text-anchor="middle" x="854" y="-104.602" font-family="Times New Roman,serif" font-size="14.00">[S * 10][E * 11] = 88.0 </text>
</g>
<!-- System -->
<g id="node55" class="node"><title>System</title>
<ellipse fill="none" stroke="black" cx="583" cy="-26.202" rx="38.2368" ry="18"/>
<text text-anchor="middle" x="583" y="-21.602" font-family="Times New Roman,serif" font-size="14.00">System</text>
</g>
<!-- SampleMain&#45;&gt;System -->
<g id="edge67" class="edge"><title>SampleMain&#45;&gt;System</title>
<path fill="none" stroke="red" stroke-width="2" d="M1137.21,-445.903C1125.76,-377.895 1075.56,-138.628 924,-41.202 832.017,17.9271 695.466,-0.391971 626.389,-15.2299"/>
<polygon fill="red" stroke="red" points="625.299,-11.8867 616.299,-17.4766 626.821,-18.7194 625.299,-11.8867"/>
<text text-anchor="middle" x="854" y="-44.602" font-family="Times New Roman,serif" font-size="14.00">[S * 16][E * 32] = 232.0 </text>
</g>
<!-- arr.ex -->
<g id="node57" class="node"><title>arr.ex</title>
<ellipse fill="none" stroke="black" cx="583" cy="-242.202" rx="32.1994" ry="18"/>
<text text-anchor="middle" x="583" y="-237.602" font-family="Times New Roman,serif" font-size="14.00">arr.ex</text>
</g>
<!-- SampleMain&#45;&gt;arr.ex -->
<g id="edge69" class="edge"><title>SampleMain&#45;&gt;arr.ex</title>
<path fill="none" stroke="black" d="M1127.16,-446C1097.12,-405.127 1017.7,-306.494 924,-266.202 823.342,-222.918 690.514,-229.583 624.269,-236.664"/>
<polygon fill="black" stroke="black" points="623.769,-233.198 614.224,-237.797 624.553,-240.154 623.769,-233.198"/>
<text text-anchor="middle" x="854" y="-269.602" font-family="Times New Roman,serif" font-size="14.00">[S * 1][E * 2] = 14.0 </text>
</g>
<!-- SampleDataClass -->
<g id="node59" class="node"><title>SampleDataClass</title>
<ellipse fill="none" stroke="black" cx="77" cy="-1054.2" rx="75.9737" ry="18"/>
<text text-anchor="middle" x="77" y="-1049.6" font-family="Times New Roman,serif" font-size="14.00">SampleDataClass</text>
</g>
<!-- Stamp&#45;&gt;SampleDataClass -->
<g id="edge71" class="edge"><title>Stamp&#45;&gt;SampleDataClass</title>
<path fill="none" stroke="black" d="M501.771,-745.406C494.735,-748.265 488.015,-751.811 482,-756.202 410.269,-808.565 448.895,-870.788 382,-929.202 313.222,-989.26 211.695,-1023.01 144.961,-1039.92"/>
<polygon fill="black" stroke="black" points="143.834,-1036.59 134.967,-1042.39 145.515,-1043.39 143.834,-1036.59"/>
<text text-anchor="middle" x="322" y="-1001.6" font-family="Times New Roman,serif" font-size="14.00">[S * 4] = 8.0 </text>
</g>
<!-- Common2&#45;&gt;Common -->
<g id="edge9" class="edge"><title>Common2&#45;&gt;Common</title>
<path fill="none" stroke="black" d="M537.203,-195.986C443.337,-211.939 229.589,-248.268 129.954,-265.202"/>
<polygon fill="black" stroke="black" points="129.087,-261.799 119.815,-266.925 130.26,-268.7 129.087,-261.799"/>
<text text-anchor="middle" x="322" y="-245.602" font-family="Times New Roman,serif" font-size="14.00">[S * 2] = 4.0 </text>
</g>
</g>
</svg>
